# xmcd
#
# Track frame offsets: 
#        150
#        22926
#        40244
#        64312
#        90171
#        103743
#        126211
#        145727
#        157855
#        171514
#        195858
#        219221
#        237018
#        247846
#        263206
#
# Disc length: 3675 seconds
#
# Revision: 1
# Processed by: cddbd v1.5.2PL0 Copyright (c) Steve Scherf et al.
# Submitted via: ExactAudioCopyFreeDBPlugin 1.0
#
DISCID=b90e590f
DTITLE=Wentus Blues Band - Family Album
DYEAR=2004
DGENRE=Blues
TTITLE0=Stop Breaking Down
TTITLE1=I'm Leaving You
TTITLE2=Five Long Years
TTITLE3=Axim
TTITLE4=Hurry Sunshine
TTITLE5=Bessie Mae
TTITLE6=Born On The Bayou
TTITLE7=Those Days Are Gone
TTITLE8=Heartaches And Hangovers
TTITLE9=I Don't Need A Holiday
TTITLE10=Meet Me On Sugar Hill
TTITLE11=Travelin' Mood
TTITLE12=Real Gone Lover
TTITLE13=Best Of Me
TTITLE14=I Don't Care
EXTD=YEAR: 2004
EXTT0=
EXTT1=
EXTT2=
EXTT3=
EXTT4=
EXTT5=
EXTT6=
EXTT7=
EXTT8=
EXTT9=
EXTT10=
EXTT11=
EXTT12=
EXTT13=
EXTT14=
PLAYORDER=
